Coordinates
version=1
nRows=18
nColumns=19
inDegrees=yes

Units are S.I. units (second, meters, Newtons, ...)
If the header above contains a line with 'inDegrees', this indicates whether rotational values are in degrees (yes) or radians (no).

endheader
time	pelvis_obliquity	pelvis_rotation	pelvis_tilt	pelvis_to_ground_tx	pelvis_to_ground_ty	pelvis_to_ground_tz	left_hip_abduction	left_hip_rotation	left_hip_flexion	left_knee_flexion	left_ankle_flexion	left_subtalar_angle	right_hip_abduction	right_hip_rotation	right_hip_flexion	right_knee_flexion	right_ankle_flexion	right_subtalar_angle
      2.69000000	     97.16293451	     25.25385490	     -9.61157313	     -1.68865357	     -0.58092656	      0.56404191	     -3.57510047	    -26.19635252	     -3.13145980	    -11.34824151	    -17.37531605	     -6.37598179	    -15.46713713	      0.31548793	     42.02598768	    -38.93332697	      0.24567508	    -16.70620076
      2.70000000	     95.32965616	     24.77057213	    -10.10842897	     -1.67815461	     -0.58312704	      0.56553388	     -1.74378423	    -25.87981704	      0.11365933	    -15.63038342	    -17.75331040	     -6.60840660	    -13.27705312	      0.88945749	     42.17317931	    -37.94909384	      0.46058063	    -16.43727916
      2.71000000	     93.42656676	     24.29228336	    -10.33358880	     -1.66772513	     -0.58523315	      0.56680383	      0.03857174	    -25.38264164	      2.97949864	    -19.74221325	    -18.14860797	     -6.74710584	    -11.03002355	      1.50394101	     42.02782798	    -36.94537403	      0.60283872	    -16.18462631
      2.72000000	     91.59953791	     23.80113439	    -10.68678083	     -1.65739586	     -0.58730032	      0.56816702	      1.76098451	    -24.91215717	      5.76723651	    -23.48007983	    -18.53283916	     -6.69895980	     -8.91344909	      2.29109418	     41.83899304	    -35.73009998	      0.70102579	    -15.87748060
      2.73000000	     89.90837390	     23.28225973	    -10.89551753	     -1.64717902	     -0.58927830	      0.56961609	      3.26403844	    -24.23117699	      8.23302137	    -26.88828131	    -18.92300848	     -6.70884132	     -6.92696727	      3.09154679	     41.34290445	    -34.39099184	      0.75602746	    -15.60732718
      2.74000000	     88.40177974	     22.70905835	    -11.02562052	     -1.63707993	     -0.59118427	      0.57128804	      4.51053729	    -23.35220557	     10.43371865	    -29.91519226	    -19.24110971	     -6.91083935	     -5.13716500	      4.00115158	     40.55511387	    -32.85377858	      0.82028674	    -15.40472125
      2.75000000	     87.16335584	     22.10148762	    -11.26627087	     -1.62712015	     -0.59302322	      0.57328122	      5.48145419	    -22.34671439	     12.57809835	    -32.55440837	    -19.51717311	     -7.20803966	     -3.62573146	      4.97718859	     39.62252923	    -31.07604304	      0.82040539	    -15.22151390
      2.76000000	     86.21169291	     21.47205253	    -11.63942012	     -1.61729980	     -0.59478627	      0.57563303	      6.15282854	    -21.25417267	     14.70905935	    -34.80359733	    -19.78383922	     -7.80853986	     -2.41651363	      6.03403295	     38.55816786	    -29.03154010	      0.57733088	    -15.12028129
      2.77000000	     85.48827056	     20.80834922	    -11.96191231	     -1.60762264	     -0.59646498	      0.57821780	      6.51210547	    -19.99444129	     16.70291487	    -36.73621926	    -19.92333704	     -8.69226036	     -1.41512889	      7.09888982	     37.26155033	    -26.83348483	      0.21445334	    -15.15645039
      2.78000000	     85.01386777	     20.09989220	    -12.28196081	     -1.59809541	     -0.59803232	      0.58100071	      6.54287826	    -18.58010356	     18.62386379	    -38.35527347	    -19.94721746	     -9.72136645	     -0.64054140	      8.13331702	     35.80178069	    -24.51174621	     -0.24314274	    -15.26961158
      2.79000000	     84.76782814	     19.33555524	    -12.57860240	     -1.58869817	     -0.59945292	      0.58394313	      6.23905393	    -17.08177839	     20.44129385	    -39.64969833	    -19.89494505	    -10.30622942	     -0.09225446	      9.21246681	     34.17324804	    -22.06416820	     -0.38329001	    -15.17311845
      2.80000000	     84.69221625	     18.59937240	    -12.92869701	     -1.57948166	     -0.60075352	      0.58692044	      5.72411129	    -15.60391458	     22.34077713	    -40.71997993	    -19.61833690	    -11.82062246	      0.31268541	     10.13758598	     32.52457102	    -19.57100390	     -1.31836907	    -15.46191344
      2.81000000	     84.76907301	     17.80417018	    -13.20511325	     -1.57041355	     -0.60187580	      0.58985198	      4.94332970	    -14.09824003	     24.14853021	    -41.54600419	    -19.37828086	    -12.85683089	      0.56918855	     11.03681912	     30.76886917	    -17.09415567	     -1.94172769	    -15.56695879
      2.82000000	     84.96269550	     16.97151753	    -13.40723788	     -1.56149634	     -0.60280615	      0.59265279	      3.95277458	    -12.63993448	     25.89148320	    -42.16445357	    -19.16363664	    -13.39980753	      0.71784928	     11.84691302	     28.95110643	    -14.69535116	     -2.16427909	    -15.40474335
      2.83000000	     85.17920641	     16.15273357	    -13.57361553	     -1.55275636	     -0.60359241	      0.59520631	      2.90534620	    -11.28975530	     27.69625955	    -42.67252139	    -18.56619925	    -14.58082509	      0.85871428	     12.45761245	     27.17058634	    -12.42687940	     -3.15014227	    -15.46281047
      2.84000000	     85.39071881	     15.31219201	    -13.65376203	     -1.54417279	     -0.60422565	      0.59746112	      1.81875297	    -10.02238766	     29.50267669	    -43.08549936	    -18.41556468	    -14.89278107	      1.00326043	     12.94453996	     25.41381747	    -10.34925333	     -3.25572326	    -15.24934660
      2.85000000	     85.64843673	     14.43563993	    -13.66184221	     -1.53571473	     -0.60464686	      0.59944206	      0.67812603	     -9.03073992	     31.23756062	    -43.32773691	    -17.73453453	    -15.75836139	      1.05806652	     13.46320858	     23.64020866	     -8.38154579	     -4.27125881	    -15.12639835
      2.86000000	     85.78050844	     13.57570264	    -13.62469510	     -1.52741002	     -0.60499379	      0.60100037	     -0.29605429	     -8.14525052	     33.09373103	    -43.58419420	    -17.58796215	    -15.94676979	      1.23399469	     13.81149933	     21.99693905	     -6.67228216	     -4.36485507	    -14.87346372
